<svg width="11" height="18" viewBox="0 0 11 18" fill="none" xmlns="http://www.w3.org/2000/svg">
<path d="M10.3649 1.06501C10.2262 0.925954 10.0613 0.815632 9.87987 0.74036C9.69841 0.665088 9.50389 0.626343 9.30744 0.626343C9.11098 0.626343 8.91646 0.665088 8.735 0.74036C8.55354 0.815632 8.38871 0.925954 8.24994 1.06501L1.36494 7.95001C1.22588 8.08878 1.11556 8.25361 1.04029 8.43507C0.965015 8.61653 0.92627 8.81106 0.92627 9.00751C0.92627 9.20396 0.965015 9.39849 1.04029 9.57995C1.11556 9.76141 1.22588 9.92624 1.36494 10.065L8.24994 16.95C8.38881 17.0889 8.55367 17.199 8.73512 17.2742C8.91657 17.3494 9.11104 17.388 9.30744 17.388C9.50383 17.388 9.6983 17.3494 9.87975 17.2742C10.0612 17.199 10.2261 17.0889 10.3649 16.95C10.5038 16.8111 10.614 16.6463 10.6891 16.4648C10.7643 16.2834 10.803 16.0889 10.803 15.8925C10.803 15.6961 10.7643 15.5016 10.6891 15.3202C10.614 15.1387 10.5038 14.9739 10.3649 14.835L4.54494 9.00001L10.3649 3.18001C10.9349 2.59501 10.9349 1.63501 10.3649 1.06501Z" fill="black"/>
</svg>
